<svg width="123" height="36" viewBox="0 0 123 36" fill="none" xmlns="http://www.w3.org/2000/svg">
<path d="M15.4898 20.1996L12.9889 13.8029H4.92495L2.44678 20.1996H0.0820312L8.03825 0H10.0004L17.9112 20.1996H15.4898ZM12.2574 11.699L9.92098 5.46671C9.61475 4.67846 9.30853 3.71442 8.98529 2.56323C8.78114 3.44221 8.49193 4.41193 8.11765 5.46671L5.75289 11.699H12.2574Z" fill="black"/>
<path d="M35.439 20.1996L32.9325 13.8029H24.8742L22.396 20.1996H20.0312L27.9818 0H29.9496L37.8604 20.1996H35.439ZM32.2066 11.699L29.8702 5.46671C29.5696 4.67846 29.2577 3.71442 28.9345 2.56323C28.7304 3.44221 28.4411 4.41193 28.0669 5.46671L25.7021 11.699H32.2066Z" fill="black"/>
<path d="M56.97 9.95324C56.97 13.2707 56.0684 15.8112 54.265 17.5692C52.4617 19.3215 49.8701 20.2005 46.4846 20.2005H40.9102V0.0859375H47.0744C50.2047 0.0859375 52.6318 0.95358 54.3671 2.68886C56.1024 4.42415 56.97 6.84561 56.97 9.95324ZM54.4919 10.0326C54.4919 7.40702 53.8284 5.43356 52.5184 4.10658C51.2028 2.7796 49.2463 2.11044 46.6491 2.11044H43.2522V18.1817H46.1047C48.8947 18.1817 50.9873 17.4955 52.3937 16.1231C53.8 14.7508 54.4975 12.7206 54.4975 10.0326" fill="black"/>
<path d="M63.5942 11.836V20.2005H61.2578V0.0859375H66.7756C69.2424 0.0859375 71.0684 0.556619 72.2423 1.50365C73.4218 2.45069 74.0116 3.8684 74.0116 5.76814C74.0116 8.42778 72.6619 10.2254 69.9683 11.1611L75.4293 20.2005H72.6619L67.7963 11.836H63.5999H63.5942ZM63.5942 9.82848H66.8039C68.4541 9.82848 69.6677 9.49957 70.4389 8.84742C71.2102 8.1896 71.5958 7.20854 71.5958 5.89857C71.5958 4.5886 71.2045 3.61321 70.4219 3.02344C69.6337 2.43935 68.3804 2.14446 66.6451 2.14446H63.6055V9.83415L63.5942 9.82848Z" fill="black"/>
<path d="M83.3772 0.0859375H81.0352V20.2005H83.3772V0.0859375Z" fill="black"/>
<path d="M90.7891 20.2005V0.0859375H93.1255V18.0853H102V20.2005H90.7891Z" fill="black"/>
<path d="M119.775 20.1996L117.274 13.8029H109.21L106.732 20.1996H104.367L112.323 0H114.286L122.196 20.1996H119.775ZM116.543 11.699L114.206 5.46671C113.9 4.67846 113.594 3.71442 113.27 2.56323C113.066 3.44221 112.777 4.41193 112.403 5.46671L110.038 11.699H116.543Z" fill="black"/>
<path d="M3.47624 35.1478H2.23999V28.6093H0V27.5488H5.71623V28.6093H3.47624V35.1478Z" fill="black"/>
<path d="M15.0095 35.1478H10.7109V27.5488H15.0095V28.5979H11.9529V30.6678H14.8166V31.7056H11.9529V34.093H15.0095V35.1478Z" fill="black"/>
<path d="M23.7121 28.5019C22.9976 28.5019 22.4362 28.7571 22.0279 29.2618C21.6196 29.7665 21.4154 30.464 21.4154 31.36C21.4154 32.256 21.6082 32.9989 22.0052 33.4753C22.3965 33.9516 22.9636 34.1898 23.7121 34.1898C24.0297 34.1898 24.3473 34.1614 24.6478 34.0934C24.9484 34.031 25.2603 33.9459 25.5892 33.8495V34.91C24.9938 35.1368 24.3189 35.2502 23.5647 35.2502C22.4532 35.2502 21.6026 34.91 21.0015 34.2408C20.406 33.566 20.1055 32.6019 20.1055 31.3487C20.1055 30.5548 20.2472 29.8686 20.5421 29.2732C20.8313 28.6834 21.2453 28.2297 21.7954 27.9121C22.3455 27.5946 22.9863 27.4358 23.7235 27.4358C24.5004 27.4358 25.2149 27.5946 25.8727 27.9235L25.4247 28.9613C25.1639 28.8365 24.8917 28.7344 24.6081 28.6437C24.3189 28.553 24.024 28.5076 23.7065 28.5076" fill="black"/>
<path d="M37.0488 35.1478H35.8012V31.7226H32.2966V35.1478H31.0547V27.5488H32.2966V30.6565H35.8012V27.5488H37.0488V35.1478Z" fill="black"/>
<path d="M49.2133 35.1478H47.6878L43.9507 29.0913H43.911L43.9337 29.4316C43.9847 30.0724 44.0074 30.6621 44.0074 31.1952V35.1478H42.8789V27.5488H44.3873L48.1131 33.5713H48.1471C48.1415 33.4919 48.1245 33.2027 48.1018 32.698C48.0848 32.1989 48.0734 31.8076 48.0734 31.5298V27.5488H49.2133V35.1478Z" fill="black"/>
<path d="M61.7906 31.3369C61.7906 32.5732 61.4787 33.5372 60.8606 34.2234C60.2481 34.9096 59.3691 35.2555 58.2349 35.2555C57.1008 35.2555 56.2104 34.9152 55.5923 34.2347C54.9742 33.5542 54.668 32.5845 54.668 31.3312C54.668 30.078 54.9742 29.1139 55.598 28.4391C56.2161 27.7643 57.1008 27.4297 58.2463 27.4297C59.3918 27.4297 60.2481 27.7699 60.8662 28.4561C61.4843 29.1423 61.7962 30.1007 61.7962 31.3426M55.9836 31.3369C55.9836 32.2726 56.1708 32.9815 56.5507 33.4635C56.925 33.9455 57.4864 34.1894 58.2293 34.1894C58.9722 34.1894 59.5279 33.9512 59.9022 33.4748C60.2765 32.9985 60.4693 32.2839 60.4693 31.3369C60.4693 30.3899 60.2821 29.698 59.9078 29.216C59.5392 28.734 58.9835 28.4958 58.2406 28.4958C57.4977 28.4958 56.9363 28.734 56.5564 29.216C56.1764 29.698 55.9836 30.4069 55.9836 31.3369Z" fill="black"/>
<path d="M67.2461 35.1478V27.5488H68.4823V34.0817H71.7034V35.1478H67.2461Z" fill="black"/>
<path d="M83.5953 31.3369C83.5953 32.5732 83.289 33.5372 82.6652 34.2234C82.0471 34.9096 81.1681 35.2555 80.0396 35.2555C78.9111 35.2555 78.0095 34.9152 77.397 34.2347C76.7846 33.5542 76.4727 32.5845 76.4727 31.3312C76.4727 30.078 76.7846 29.1139 77.4027 28.4391C78.0151 27.7643 78.9055 27.4297 80.051 27.4297C81.1965 27.4297 82.0528 27.7699 82.6709 28.4561C83.289 29.1423 83.6009 30.1007 83.6009 31.3426M77.794 31.3369C77.794 32.2726 77.9811 32.9815 78.3611 33.4635C78.741 33.9455 79.3024 34.1894 80.0396 34.1894C80.7768 34.1894 81.3383 33.9512 81.7125 33.4748C82.0868 32.9985 82.2739 32.2839 82.2739 31.3369C82.2739 30.3899 82.0868 29.698 81.7182 29.216C81.3439 28.734 80.7882 28.4958 80.051 28.4958C79.3138 28.4958 78.7467 28.734 78.3667 29.216C77.9868 29.698 77.794 30.4069 77.794 31.3369Z" fill="black"/>
<path d="M92.1577 31.0253H94.9534V34.8418C94.4941 34.9949 94.0518 35.097 93.6321 35.1594C93.2125 35.2218 92.7588 35.2558 92.2711 35.2558C91.1199 35.2558 90.2296 34.9155 89.6115 34.235C88.9877 33.5545 88.6758 32.5905 88.6758 31.3542C88.6758 30.118 89.0217 29.171 89.7306 28.4848C90.4337 27.7929 91.4035 27.447 92.6341 27.447C93.428 27.447 94.1765 27.6001 94.891 27.9064L94.4544 28.9441C93.8419 28.6606 93.2238 28.5188 92.6057 28.5188C91.7948 28.5188 91.154 28.774 90.6833 29.2844C90.2069 29.7948 89.9744 30.4923 89.9744 31.3769C89.9744 32.307 90.1842 33.0158 90.6095 33.4978C91.0349 33.9799 91.6473 34.2237 92.4412 34.2237C92.8439 34.2237 93.2749 34.1727 93.7285 34.0763V32.1141H92.1577V31.048V31.0253Z" fill="black"/>
<path d="M101.84 27.5488H100.598V35.1478H101.84V27.5488Z" fill="black"/>
<path d="M111.966 35.1478H107.668V27.5488H111.966V28.5979H108.91V30.6678H111.774V31.7056H108.91V34.093H111.966V35.1478Z" fill="black"/>
<path d="M121.817 33.0839C121.817 33.7587 121.573 34.2918 121.085 34.6774C120.598 35.063 119.923 35.2559 119.067 35.2559C118.21 35.2559 117.501 35.1198 116.957 34.8532V33.6794C117.303 33.8438 117.672 33.9686 118.063 34.065C118.454 34.1557 118.811 34.2067 119.152 34.2067C119.645 34.2067 120.008 34.1103 120.24 33.9232C120.479 33.7361 120.592 33.4809 120.592 33.169C120.592 32.8854 120.484 32.6473 120.274 32.4488C120.059 32.2503 119.611 32.0178 118.942 31.7456C118.25 31.4621 117.762 31.1445 117.479 30.7872C117.19 30.4243 117.053 29.9933 117.053 29.4886C117.053 28.8535 117.28 28.3544 117.728 27.9915C118.182 27.6285 118.789 27.4414 119.543 27.4414C120.297 27.4414 121 27.6002 121.721 27.9178L121.324 28.9328C120.649 28.6493 120.042 28.5075 119.515 28.5075C119.112 28.5075 118.806 28.5983 118.596 28.7741C118.392 28.9499 118.284 29.1824 118.284 29.4659C118.284 29.6644 118.324 29.8345 118.409 29.9706C118.488 30.1124 118.63 30.2485 118.817 30.3676C119.004 30.4923 119.35 30.6568 119.849 30.8666C120.405 31.0991 120.813 31.3146 121.074 31.5188C121.335 31.7172 121.528 31.9441 121.647 32.1993C121.772 32.4544 121.828 32.7493 121.828 33.0953" fill="black"/>
</svg>
